<svg width="66" height="66" viewBox="0 0 66 66" fill="none" xmlns="http://www.w3.org/2000/svg">
<rect x="0.927734" y="1.06934" width="64" height="64" rx="16" transform="rotate(-0.129846 0.927734 1.06934)" fill="#7495D9" fill-opacity="0.08"/>
<rect x="1.42887" y="1.5682" width="63" height="63" rx="15.5" transform="rotate(-0.129846 1.42887 1.5682)" stroke="url(#paint0_linear_124_428)" stroke-opacity="0.3"/>
<mask id="mask0_124_428" style="mask-type:alpha" maskUnits="userSpaceOnUse" x="10" y="18" width="46" height="30">
<path fill-rule="evenodd" clip-rule="evenodd" d="M29.2428 20.2691C26.8996 17.9259 23.1006 17.9259 20.7575 20.2691L12.2722 28.7544C9.92905 31.0975 9.92905 34.8965 12.2722 37.2396L20.7575 45.7249C23.1006 48.0681 26.8996 48.0681 29.2428 45.7249L33.0001 41.9676L36.7575 45.7249C39.1006 48.0681 42.8996 48.0681 45.2428 45.7249L53.728 37.2396C56.0712 34.8965 56.0712 31.0975 53.728 28.7544L45.2428 20.2691C42.8996 17.9259 39.1006 17.9259 36.7575 20.2691L33.0001 24.0264L29.2428 20.2691ZM33.0001 24.0264L28.2722 28.7544C25.929 31.0975 25.929 34.8965 28.2722 37.2396L33.0001 41.9676L37.728 37.2396C40.0712 34.8965 40.0712 31.0975 37.728 28.7544L33.0001 24.0264Z" fill="#D9D9D9"/>
</mask>
<g mask="url(#mask0_124_428)">
<path fill-rule="evenodd" clip-rule="evenodd" d="M-4.06128 38.3899L38.2114 -3.88281L38.9828 -3.11142L-3.28989 39.1613L-4.06128 38.3899ZM-2.51868 39.9329L39.754 -2.33978L40.5254 -1.56839L-1.7473 40.7043L-2.51868 39.9329ZM41.2969 -0.797631L-0.975806 41.4751L-0.204417 42.2465L42.0683 -0.0262415L41.2969 -0.797631ZM0.566986 43.0183L42.8397 0.745584L43.6111 1.51697L1.33838 43.7897L0.566986 43.0183ZM45.9252 3.83121L3.65243 46.1039L4.42382 46.8753L46.6966 4.6026L45.9252 3.83121ZM6.73806 49.189L49.0108 6.91624L49.7822 7.68763L7.50945 49.9604L6.73806 49.189ZM52.0963 10.0023L9.82359 52.2751L10.595 53.0465L52.8677 10.7737L52.0963 10.0023ZM12.9092 55.3607L55.1819 13.088L55.9533 13.8593L13.6806 56.1321L12.9092 55.3607ZM58.2674 16.1731L15.9947 58.4458L16.766 59.2172L59.0388 16.9445L58.2674 16.1731ZM19.0803 61.5315L61.3531 19.2588L62.1245 20.0302L19.8517 62.3029L19.0803 61.5315ZM64.4385 22.3447L22.1658 64.6174L22.9372 65.3888L65.2099 23.1161L64.4385 22.3447ZM25.2515 67.7026L67.5242 25.4299L68.2956 26.2013L26.0229 68.474L25.2515 67.7026ZM44.3824 2.28823L2.1097 44.561L2.88109 45.3323L45.1538 3.05962L44.3824 2.28823ZM5.19518 47.6468L47.4679 5.37409L48.2393 6.14548L5.96657 48.4182L5.19518 47.6468ZM50.5536 8.4594L8.28088 50.7321L9.05226 51.5035L51.325 9.23079L50.5536 8.4594ZM11.3663 53.8178L53.639 11.5451L54.4104 12.3165L12.1377 54.5892L11.3663 53.8178ZM56.7247 14.6301L14.4519 56.9028L15.2233 57.6742L57.496 15.4015L56.7247 14.6301ZM17.5375 59.9889L59.8102 17.7162L60.5816 18.4875L18.3089 60.7603L17.5375 59.9889ZM62.8958 20.8018L20.6231 63.0746L21.3944 63.8459L63.6672 21.5732L62.8958 20.8018ZM23.7085 66.1597L65.9812 23.8869L66.7526 24.6583L24.4799 66.9311L23.7085 66.1597ZM69.067 26.9726L26.7942 69.2453L27.5656 70.0167L69.8383 27.744L69.067 26.9726Z" fill="url(#paint1_linear_124_428)"/>
</g>
<defs>
<linearGradient id="paint0_linear_124_428" x1="32.9277" y1="1.06934" x2="32.9277" y2="65.0693" gradientUnits="userSpaceOnUse">
<stop stop-color="#749FF6"/>
<stop offset="0.430493" stop-color="#153984"/>
</linearGradient>
<linearGradient id="paint1_linear_124_428" x1="32.8886" y1="-3.88281" x2="32.8886" y2="70.0166" gradientUnits="userSpaceOnUse">
<stop stop-color="#84ACFF"/>
<stop offset="1" stop-color="#3D79F5" stop-opacity="0.12"/>
</linearGradient>
</defs>
</svg>
