<svg width="36" height="36" viewBox="0 0 36 36" fill="none" xmlns="http://www.w3.org/2000/svg">
<rect width="36" height="36" rx="9.24998" fill="url(#paint0_linear_124_715)" fill-opacity="0.35"/>
<rect x="0.660713" y="0.660713" width="34.6786" height="34.6786" rx="8.58927" stroke="url(#paint1_linear_124_715)" stroke-opacity="0.3" stroke-width="1.32143"/>
<rect x="7" y="7" width="22" height="22" fill="url(#paint2_linear_124_715)" fill-opacity="0.35"/>
<rect x="7.42594" y="7.42594" width="21.1481" height="21.1481" stroke="url(#paint3_linear_124_715)" stroke-opacity="0.3" stroke-width="0.851874"/>
<path fill-rule="evenodd" clip-rule="evenodd" d="M15.0943 10.3278C14.6156 10.3278 14.2275 9.93971 14.2275 9.46096V7.43832C14.2275 6.95957 14.6156 6.57147 15.0943 6.57147C15.5731 6.57147 15.9612 6.95957 15.9612 7.43832V9.46096C15.9612 9.93971 15.5731 10.3278 15.0943 10.3278ZM21.7412 13.9379L13.9396 13.9379L13.9396 21.7395L21.7412 21.7395L21.7412 13.9379ZM13.9396 12.2042C12.9821 12.2042 12.2059 12.9804 12.2059 13.9379V21.7395C12.2059 22.697 12.9821 23.4732 13.9396 23.4732H21.7412C22.6987 23.4732 23.4749 22.697 23.4749 21.7395V13.9379C23.4749 12.9804 22.6987 12.2042 21.7412 12.2042H13.9396ZM14.2275 28.2425C14.2275 28.7212 14.6156 29.1093 15.0943 29.1093C15.5731 29.1093 15.9612 28.7212 15.9612 28.2425V26.2198C15.9612 25.7411 15.5731 25.353 15.0943 25.353C14.6156 25.353 14.2275 25.7411 14.2275 26.2198V28.2425ZM20.7289 10.3278C20.2502 10.3278 19.8621 9.93971 19.8621 9.46096V7.43832C19.8621 6.95957 20.2502 6.57147 20.7289 6.57147C21.2076 6.57147 21.5957 6.95957 21.5957 7.43832V9.46096C21.5957 9.93971 21.2076 10.3278 20.7289 10.3278ZM19.8621 28.2425C19.8621 28.7212 20.2502 29.1093 20.7289 29.1093C21.2076 29.1093 21.5957 28.7212 21.5957 28.2425V26.2198C21.5957 25.7411 21.2076 25.353 20.7289 25.353C20.2502 25.353 19.8621 25.7411 19.8621 26.2198V28.2425ZM6.57147 15.0975C6.57147 14.6188 6.95957 14.2307 7.43832 14.2307H9.46096C9.93971 14.2307 10.3278 14.6188 10.3278 15.0975C10.3278 15.5763 9.93971 15.9644 9.46096 15.9644H7.43832C6.95957 15.9644 6.57147 15.5763 6.57147 15.0975ZM26.2211 14.2307C25.7424 14.2307 25.3543 14.6188 25.3543 15.0975C25.3543 15.5763 25.7424 15.9644 26.2211 15.9644H28.2437C28.7225 15.9644 29.1106 15.5763 29.1106 15.0975C29.1106 14.6188 28.7225 14.2307 28.2437 14.2307H26.2211ZM25.3543 20.7286C25.3543 20.2498 25.7424 19.8617 26.2211 19.8617H28.2437C28.7225 19.8617 29.1106 20.2498 29.1106 20.7286C29.1106 21.2073 28.7225 21.5954 28.2437 21.5954H26.2211C25.7424 21.5954 25.3543 21.2073 25.3543 20.7286ZM7.43832 19.8617C6.95957 19.8617 6.57147 20.2498 6.57147 20.7286C6.57147 21.2073 6.95957 21.5954 7.43832 21.5954H9.46096C9.93971 21.5954 10.3278 21.2073 10.3278 20.7286C10.3278 20.2498 9.93971 19.8617 9.46096 19.8617H7.43832Z" fill="url(#paint4_linear_124_715)"/>
<defs>
<linearGradient id="paint0_linear_124_715" x1="18" y1="0" x2="18" y2="36" gradientUnits="userSpaceOnUse">
<stop stop-color="#284A90"/>
<stop offset="1" stop-color="#284A90" stop-opacity="0.4"/>
</linearGradient>
<linearGradient id="paint1_linear_124_715" x1="18" y1="0" x2="18" y2="36" gradientUnits="userSpaceOnUse">
<stop stop-color="#749FF6"/>
<stop offset="0.430493" stop-color="#153984"/>
</linearGradient>
<linearGradient id="paint2_linear_124_715" x1="18" y1="7" x2="18" y2="29" gradientUnits="userSpaceOnUse">
<stop stop-color="#284A90"/>
<stop offset="1" stop-color="#284A90" stop-opacity="0.4"/>
</linearGradient>
<linearGradient id="paint3_linear_124_715" x1="18" y1="7" x2="18" y2="29" gradientUnits="userSpaceOnUse">
<stop stop-color="#749FF6"/>
<stop offset="0.430493" stop-color="#153984"/>
</linearGradient>
<linearGradient id="paint4_linear_124_715" x1="17.8449" y1="6.08712" x2="17.8449" y2="29.5955" gradientUnits="userSpaceOnUse">
<stop stop-color="#8096CC"/>
<stop offset="1" stop-color="#8096CB" stop-opacity="0.5"/>
</linearGradient>
</defs>
</svg>
